<svg version="1.2" xmlns="http://www.w3.org/2000/svg" viewBox="0 0 616 927" width="616" height="927">
	<style>
		.s0 { opacity: .99;fill: #d88a1e } 
		.s1 { opacity: .99;fill: #ffffff } 
		.s2 { fill: #d88a1e } 
		.s3 { fill: #ffffff } 
	</style>
	<g id="Layer 1">
		<g id="Pasta 2">
			<path id="Path 0" fill-rule="evenodd" class="s0" d="m551 1.07c-5.77 0.45-15 1.53-20.5 2.41-5.5 0.87-15.63 2.43-22.5 3.46-6.88 1.03-18.57 3.44-26 5.36-7.43 1.92-16.2 4.26-19.5 5.2-3.3 0.94-11.85 4-19 6.81-7.15 2.81-19.98 8.56-28.5 12.78-8.52 4.22-20 10.69-25.5 14.39-5.5 3.69-13.13 9.26-16.96 12.37-3.83 3.11-9.68 8.37-13 11.7-3.32 3.32-8.52 8.95-11.55 12.5-3.03 3.55-6.89 8.25-8.56 10.45-1.68 2.2-5.34 7.82-8.13 12.5-2.79 4.68-6.43 11.2-8.08 14.5-1.65 3.3-4.79 10.28-6.97 15.5-2.18 5.22-4.9 13.1-6.05 17.5-1.14 4.4-2.76 11.38-3.59 15.5-0.83 4.13-2.04 10.88-2.69 15-0.64 4.13-1.4 12.22-1.67 18-0.28 5.78 0.04 17.47 0.7 26 0.66 8.53 1.34 17.3 1.51 19.5 0.16 2.2 0.91 6.15 1.67 8.78 0.75 2.63 1.76 4.66 2.23 4.5 0.48-0.15 3.64-5.68 7.02-12.28 3.39-6.6 8.05-14.93 10.35-18.5 2.3-3.57 5.66-8.66 7.47-11.3 1.82-2.64 6.19-8.71 9.73-13.5 3.53-4.78 6.71-8.92 7.05-9.2 0.35-0.28 4.72-5.22 9.71-11 5-5.78 11.95-13.22 15.45-16.54 3.5-3.32 11.31-10.47 17.36-15.89 6.05-5.42 15.5-13.06 21-16.96 5.5-3.91 14.39-9.92 19.75-13.36 5.36-3.44 10.09-6.26 10.5-6.28 0.41-0.01 1.43-0.64 2.25-1.39 0.82-0.76 4.65-3.09 8.5-5.18 3.85-2.09 9.48-5.02 12.5-6.51 3.02-1.5 9.1-4.35 13.5-6.33 4.4-1.99 8.79-3.6 9.75-3.59 0.96 0.02 1.75 0.48 1.75 1.03 0 0.55-2.09 2.91-4.64 5.25-2.55 2.34-5.14 4.71-5.75 5.27-0.61 0.56-5.38 4.57-10.61 8.92-5.23 4.35-11.44 9.74-13.81 11.98-2.37 2.25-9.85 9.71-16.63 16.58-6.77 6.88-14.99 15.43-18.26 19-3.27 3.57-7.73 8.53-9.91 11-2.18 2.47-6.44 7.65-9.46 11.5-3.03 3.85-8.68 11.28-12.56 16.5-3.88 5.22-9.39 12.88-12.26 17-2.86 4.13-8.46 12.45-12.45 18.5-3.99 6.05-8.79 13.7-10.67 17-1.88 3.3-4.67 8.25-6.21 11-1.54 2.75-3.58 6.57-4.54 8.5-0.96 1.93-1.97 3.73-2.24 4-0.27 0.27-3.05 5.68-6.18 12-3.12 6.32-7.43 15.55-9.59 20.5-2.16 4.95-5.07 11.7-6.48 15-1.41 3.3-4.65 12.3-7.21 20-2.56 7.7-6.18 19.85-8.05 27-1.88 7.15-4.3 17.5-5.39 23-1.1 5.5-2.68 14.73-3.52 20.5-0.84 5.77-2.22 16.57-3.08 24-0.88 7.71-1.81 27.44-2.17 46-0.33 17.88-0.25 44.2 0.19 58.5l0.81 26c6.33 2.64 10.19 3.59 12.67 3.82 2.48 0.23 7.65-0.23 11.5-1.03 3.85-0.8 7.62-1.98 8.39-2.62 1.16-0.98 1.24-7.23 0.5-39.17-0.49-20.9-0.77-47-0.63-58 0.14-11 0.69-26.07 1.22-33.5 0.54-7.43 1.22-14.62 1.53-16 0.3-1.37 0.99-6.1 1.52-10.5 0.53-4.4 1.26-8.9 1.62-10 0.36-1.1 1.94-7.85 3.51-15 1.57-7.15 3.04-13.68 3.27-14.5 0.22-0.82 2.2-6.68 4.39-13 2.19-6.32 5.86-16.45 8.16-22.5 2.29-6.05 4.36-11.9 4.59-13 0.23-1.1 1.25-3.12 2.27-4.5 1.02-1.37 3.47-5.65 5.44-9.5 2.05-3.98 4.59-7.48 5.91-8.11 1.27-0.6 5.91-1.18 10.31-1.29 4.4-0.1 15.88-1.51 25.5-3.12 9.63-1.61 22.23-4.26 28-5.88 5.77-1.61 14.32-4.34 19-6.06 4.68-1.72 13.45-5.57 19.5-8.55 6.05-2.99 14.62-7.58 19.05-10.21 4.43-2.63 10.06-6.33 12.5-8.23 2.45-1.89 6.3-5.04 8.57-7 2.26-1.95 6.51-5.57 9.44-8.05 2.92-2.47 9.54-9.45 14.7-15.5 5.16-6.05 12.34-15.72 15.97-21.5 3.62-5.77 8.88-15.22 11.69-21 2.8-5.77 6.38-13.43 7.94-17 1.57-3.57 3.43-7.85 4.13-9.5 0.7-1.65 2.66-7.27 4.35-12.5 1.7-5.22 4.28-13.55 5.74-18.5 1.46-4.95 3.72-13.95 5.02-20 1.3-6.05 2.59-11.68 2.85-12.5 0.27-0.82 1.2-4.87 2.07-9 0.87-4.12 2.67-12.45 4.01-18.5 1.34-6.05 4.04-17.52 6-25.5 1.96-7.98 5.62-20.8 8.14-28.5 2.51-7.7 4.29-14.79 3.95-15.75-0.46-1.3-1.97-1.84-5.87-2.09-2.89-0.19-14.92-0.36-26.75-0.38-11.83-0.01-26.23 0.34-32 0.79z"/>
			<path id="Path 0" fill-rule="evenodd" class="s1" d="m25.5 150.02c-6.05 0.39-13.48 1.03-16.5 1.41-3.02 0.38-6.1 1.01-6.83 1.38-1 0.53-0.13 3.09 3.63 10.69 2.73 5.5 6.98 14.95 9.45 21 2.47 6.05 7.75 20.68 11.73 32.5 3.99 11.82 9.24 27.12 11.69 34 2.44 6.87 6.28 17.23 8.53 23 2.25 5.77 5.88 13.87 8.07 18 2.2 4.12 5.84 10.43 8.09 14 2.26 3.57 7.33 10.55 11.27 15.5 3.94 4.95 9.58 11.38 12.52 14.29 2.94 2.91 5.99 5.16 6.78 5 0.79-0.16 2.03 0.95 2.75 2.46 0.81 1.68 5.52 5.53 12.07 9.86 5.91 3.91 13.9 8.57 17.75 10.36 3.85 1.78 10.38 4.46 14.5 5.95 4.13 1.49 11.32 3.76 16 5.06 4.68 1.3 12.32 3.06 17 3.93 4.68 0.86 15.03 1.95 23 2.41 7.97 0.47 19.22 0.77 25 0.66 8.5-0.14 10.69-0.49 11.5-1.81 0.75-1.22 0.05-3.56-2.83-9.4-2.11-4.27-6.8-12.95-10.43-19.27-3.62-6.32-10.4-17.35-15.05-24.5-4.66-7.15-11.19-16.6-14.52-21-3.32-4.4-11.98-14.75-19.23-23-7.25-8.25-17.42-19.05-22.59-24-5.18-4.95-13.45-12.6-18.38-17.01-4.93-4.4-10.21-9.01-11.72-10.25-1.51-1.23-2.64-2.67-2.5-3.19 0.14-0.53 1.81-0.26 3.75 0.61 1.93 0.86 8.9 4.1 15.5 7.19 6.6 3.1 16.05 8.06 21 11.03 4.95 2.97 13.5 8.42 19 12.13 5.5 3.7 14.28 10.04 19.5 14.09 5.22 4.04 14.62 12.32 20.88 18.38 6.26 6.06 14.98 15.29 19.38 20.52 4.4 5.23 11.43 14.68 15.63 21 4.19 6.32 8.52 13.42 9.62 15.77 1.31 2.83 2.24 3.84 2.72 3 0.41-0.7 0.74-9.82 0.75-20.27 0-11.14-0.61-23.55-1.47-30-0.81-6.05-1.96-13.48-2.56-16.5-0.59-3.02-2.44-10-4.12-15.5-1.67-5.5-5.16-14.5-7.76-20-2.6-5.5-6.91-13.6-9.58-18-2.67-4.4-8.03-11.79-11.92-16.43-3.89-4.63-10.89-11.62-15.57-15.52-4.68-3.89-12.32-9.6-17-12.68-4.68-3.08-11.65-7.18-15.5-9.11-3.85-1.93-11.72-5.57-17.5-8.08-5.78-2.51-15.9-6.12-22.5-8.02-6.6-1.9-15.82-4.17-20.5-5.03-4.68-0.87-13.23-2.28-19-3.14-5.77-0.86-16.8-2.23-24.5-3.04-7.7-0.8-19.4-1.39-26-1.3-6.6 0.08-16.95 0.48-23 0.87z"/>
		</g>
		<g id="Pasta 1">
			<path id="Forma 1" fill-rule="evenodd" class="s2" d="m555 576.64l-92.5 52.34v83.32l92.5-49.15z"/>
			<path id="Forma 2" fill-rule="evenodd" class="s2" d="m555 708.65l-92.5 49.65v88.34l92.5-45.34z"/>
			<path id="Forma 3" fill-rule="evenodd" class="s2" d="m424 653.97l-97.5 54.68v218.35l97.5-57.03z"/>
			<path id="Forma 4" fill-rule="evenodd" class="s3" d="m290 708.65v218.35l-230-132.36v-220z"/>
			<path id="Forma 5" fill-rule="evenodd" class="s3" d="m82.5 541.97l225.5 125.98 225-125.98-169.67-94.02v41.35l99.17 52.67-154.5 85-152-85 98-52.67v-41.35z"/>
		</g>
	</g>
</svg>